<mxfile host="app.diagrams.net" modified="2024-03-28T20:31:53.299Z" agent="Mozilla/5.0 (Windows NT 10.0; Win64; x64) AppleWebKit/537.36 (KHTML, like Gecko) Chrome/122.0.0.0 Safari/537.36 Edg/122.0.0.0" version="24.2.1" etag="qcKYOS_4KrWEvmm3hFZG" type="github">
  <diagram name="Page-1" id="etk6AyelPlroGm8oZQzq">
    <mxGraphModel>
      <root>
        <mxCell id="0" />
        <mxCell id="1" parent="0" />
      </root>
    </mxGraphModel>
  </diagram>
</mxfile>
